<svg width="30" height="24" viewBox="0 0 30 24" fill="none" xmlns="http://www.w3.org/2000/svg">

    <path
        d="M16.6008 11.29C16.5071 11.3829 16.4327 11.4935 16.3819 11.6154C16.3312 11.7372 16.305 11.8679 16.305 12C16.305 12.132 16.3312 12.2627 16.3819 12.3845C16.4327 12.5064 16.5071 12.617 16.6008 12.71L21.1908 17.29C21.2846 17.3829 21.359 17.4935 21.4097 17.6154C21.4605 17.7372 21.4866 17.8679 21.4866 18C21.4866 18.132 21.4605 18.2627 21.4097 18.3846C21.359 18.5064 21.2846 18.617 21.1908 18.71C21.0035 18.8962 20.75 19.0008 20.4858 19.0008C20.2216 19.0008 19.9682 18.8962 19.7808 18.71L15.1908 14.12C14.629 13.5575 14.3135 12.795 14.3135 12C14.3135 11.205 14.629 10.4425 15.1908 9.88003L19.7808 5.29003C19.9671 5.10531 20.2185 5.00107 20.4808 4.99995C20.6124 4.99923 20.7429 5.02442 20.8647 5.07421C20.9866 5.12398 21.0974 5.19738 21.1908 5.29003C21.2846 5.38299 21.359 5.49359 21.4097 5.61545C21.4605 5.73731 21.4866 5.86802 21.4866 6.00003C21.4866 6.13204 21.4605 6.26275 21.4097 6.38461C21.359 6.50647 21.2846 6.61707 21.1908 6.71003L16.6008 11.29Z"
        fill="currentColor" />

    <path
        d="M10.6008 11.29C10.5071 11.3829 10.4327 11.4935 10.3819 11.6154C10.3312 11.7372 10.305 11.8679 10.305 12C10.305 12.132 10.3312 12.2627 10.3819 12.3845C10.4327 12.5064 10.5071 12.617 10.6008 12.71L15.1908 17.29C15.2846 17.3829 15.359 17.4935 15.4097 17.6154C15.4605 17.7372 15.4866 17.8679 15.4866 18C15.4866 18.132 15.4605 18.2627 15.4097 18.3846C15.359 18.5064 15.2846 18.617 15.1908 18.71C15.0035 18.8962 14.75 19.0008 14.4858 19.0008C14.2216 19.0008 13.9682 18.8962 13.7808 18.71L9.19084 14.12C8.62901 13.5575 8.31348 12.795 8.31348 12C8.31348 11.205 8.62901 10.4425 9.19084 9.88003L13.7808 5.29003C13.9671 5.10531 14.2185 5.00107 14.4808 4.99995C14.6124 4.99923 14.7429 5.02442 14.8647 5.07421C14.9866 5.12398 15.0974 5.19738 15.1908 5.29003C15.2846 5.38299 15.359 5.49359 15.4097 5.61545C15.4605 5.73731 15.4866 5.86802 15.4866 6.00003C15.4866 6.13204 15.4605 6.26275 15.4097 6.38461C15.359 6.50647 15.2846 6.61707 15.1908 6.71003L10.6008 11.29Z"
        fill="currentColor" />
</svg>
  