<svg width="30" height="24" viewBox="0 0 30 24" fill="none" xmlns="http://www.w3.org/2000/svg">
    <path
        d="M13.3992 12.71C13.4929 12.6171 13.5673 12.5065 13.6181 12.3846C13.6688 12.2628 13.695 12.1321 13.695 12C13.695 11.868 13.6688 11.7373 13.6181 11.6155C13.5673 11.4936 13.4929 11.383 13.3992 11.29L8.80916 6.71003C8.71543 6.61707 8.64104 6.50647 8.59027 6.38461C8.5395 6.26275 8.51336 6.13204 8.51336 6.00003C8.51336 5.86802 8.5395 5.73731 8.59027 5.61545C8.64104 5.49359 8.71543 5.38299 8.80916 5.29003C8.99653 5.10378 9.24998 4.99924 9.51416 4.99924C9.77835 4.99924 10.0318 5.10378 10.2192 5.29003L14.8092 9.88004C15.371 10.4425 15.6865 11.205 15.6865 12C15.6865 12.795 15.371 13.5575 14.8092 14.12L10.2192 18.7101C10.0329 18.8948 9.7815 18.999 9.51916 19.0001C9.38756 19.0008 9.25709 18.9756 9.13526 18.9258C9.01342 18.8761 8.9026 18.8027 8.80916 18.7101C8.71543 18.6171 8.64104 18.5065 8.59027 18.3846C8.5395 18.2628 8.51336 18.1321 8.51336 18.0001C8.51336 17.868 8.5395 17.7373 8.59027 17.6155C8.64104 17.4936 8.71543 17.383 8.80916 17.2901L13.3992 12.71Z"
        fill="currentColor" />
    <path
        d="M19.3992 12.71C19.4929 12.6171 19.5673 12.5065 19.6181 12.3846C19.6688 12.2628 19.695 12.1321 19.695 12C19.695 11.868 19.6688 11.7373 19.6181 11.6155C19.5673 11.4936 19.4929 11.383 19.3992 11.29L14.8092 6.71003C14.7154 6.61707 14.641 6.50647 14.5903 6.38461C14.5395 6.26275 14.5134 6.13204 14.5134 6.00003C14.5134 5.86802 14.5395 5.73731 14.5903 5.61545C14.641 5.49359 14.7154 5.38299 14.8092 5.29003C14.9965 5.10378 15.25 4.99924 15.5142 4.99924C15.7783 4.99924 16.0318 5.10378 16.2192 5.29003L20.8092 9.88004C21.371 10.4425 21.6865 11.205 21.6865 12C21.6865 12.795 21.371 13.5575 20.8092 14.12L16.2192 18.7101C16.0329 18.8948 15.7815 18.999 15.5192 19.0001C15.3876 19.0008 15.2571 18.9756 15.1353 18.9258C15.0134 18.8761 14.9026 18.8027 14.8092 18.7101C14.7154 18.6171 14.641 18.5065 14.5903 18.3846C14.5395 18.2628 14.5134 18.1321 14.5134 18.0001C14.5134 17.868 14.5395 17.7373 14.5903 17.6155C14.641 17.4936 14.7154 17.383 14.8092 17.2901L19.3992 12.71Z"
        fill="currentColor" />
</svg>
  